<svg width="26" height="26" viewBox="0 0 26 26" fill="none" xmlns="http://www.w3.org/2000/svg">
<path d="M8.99941 9H11.9994C13.104 9 13.9994 8.10457 13.9994 7V4.5M16.9994 5C15.9994 7.16667 15.4994 11.5 21.4994 11.5M5.99941 15.5V19.7219C5.99941 19.8948 6.08857 20.0552 6.23877 20.1409C6.89314 20.5141 8.76232 21.5 10.2494 21.5C11.7365 21.5 13.6057 20.5141 14.2601 20.1409C14.4103 20.0552 14.4994 19.8948 14.4994 19.7219V17.4796M14.4994 15.5V17V17.4796M8.57287 11.9464L4.80345 13.939C4.45489 14.1232 4.44674 14.6195 4.78907 14.8151L10.1153 17.8583C10.269 17.9461 10.4577 17.9461 10.6114 17.8583L15.9377 14.8151C16.28 14.6195 16.2719 14.1232 15.9233 13.939L14.4037 13.1357M8.57287 11.9464L10.1297 11.1235C10.2759 11.0462 10.4508 11.0462 10.597 11.1235L14.4037 13.1357M8.57287 11.9464C8.52454 11.6364 8.49941 11.3203 8.49941 11C8.49941 7.5 11.4994 4.5 14.9994 4.5C18.4994 4.5 21.4994 7.5 21.4994 11C21.4994 11.8779 21.3106 12.7244 20.9726 13.5M14.4994 17.4796C14.6647 17.4931 14.8315 17.5 14.9994 17.5C17.6215 17.5 19.9629 15.8163 20.9726 13.5M20.9726 13.5C18.8642 12.6098 15.6157 11.7938 14.4037 13.1357" stroke="#F8F8F8"/>
<rect x="0.5" y="0.5" width="25" height="25" stroke="#F8F8F8"/>
</svg>
